<?xml version="1.0" encoding="UTF-8" standalone="no"?>
<svg
   enable-background="new"
   height="128"
   viewBox="0 0 128 128"
   width="128"
   version="1.1"
   id="svg17"
   sodipodi:docname="firefox-official.svg"
   xml:space="preserve"
   inkscape:version="1.3.2 (091e20ef0f, 2023-11-25)"
   xmlns:inkscape="http://www.inkscape.org/namespaces/inkscape"
   xmlns:sodipodi="http://sodipodi.sourceforge.net/DTD/sodipodi-0.dtd"
   xmlns="http://www.w3.org/2000/svg"
   xmlns:svg="http://www.w3.org/2000/svg"><defs
     id="defs17" /><sodipodi:namedview
     id="namedview17"
     pagecolor="#ffffff"
     bordercolor="#000000"
     borderopacity="0.25"
     inkscape:showpageshadow="2"
     inkscape:pageopacity="0.0"
     inkscape:pagecheckerboard="0"
     inkscape:deskcolor="#d1d1d1"
     inkscape:zoom="6.203125"
     inkscape:cx="63.919395"
     inkscape:cy="64"
     inkscape:window-width="1904"
     inkscape:window-height="1032"
     inkscape:window-x="8"
     inkscape:window-y="4"
     inkscape:window-maximized="0"
     inkscape:current-layer="svg17" /><radialGradient
     id="radialGradient952"
     cx="109.9343873668"
     cy="183.13346333604"
     gradientUnits="userSpaceOnUse"
     r="139.89867523475"><stop
       offset=".129"
       stop-color="#ffbd4f"
       id="stop1" /><stop
       offset=".186"
       stop-color="#ffac31"
       id="stop2" /><stop
       offset=".247"
       stop-color="#ff9d17"
       id="stop3" /><stop
       offset=".283"
       stop-color="#ff980e"
       id="stop4" /><stop
       offset=".403"
       stop-color="#ff563b"
       id="stop5" /><stop
       offset=".467"
       stop-color="#ff3750"
       id="stop6" /><stop
       offset=".71"
       stop-color="#f5156c"
       id="stop7" /><stop
       offset=".782"
       stop-color="#eb0878"
       id="stop8" /><stop
       offset=".86"
       stop-color="#e50080"
       id="stop9" /></radialGradient><g
     stroke-width="1.73148"
     transform="matrix(0.85319723,0,0,0.85319723,11.277316,-138.2058)"
     id="g17"><path
       d="m 123.96611,214.21739 c -2.91581,-7.01599 -8.83056,-14.59123 -13.46229,-16.98586 a 69.719913,69.719913 0 0 1 6.79609,20.36917 l 0.0121,0.1125 c -7.58735,-18.91646 -20.454005,-26.54365 -30.962365,-43.15206 -0.53157,-0.83977 -1.06314,-1.68127 -1.58085,-2.56951 -0.29608,-0.50734 -0.5333,-0.96444 -0.73934,-1.38519 a 12.212153,12.212153 0 0 1 -1.0008,-2.65783 0.17314836,0.17314836 0 0 0 -0.15237,-0.17315 0.23894473,0.23894473 0 0 0 -0.1264,0 c -0.009,0 -0.0225,0.0156 -0.0329,0.019 -0.0104,0.003 -0.0329,0.019 -0.0485,0.026 l 0.026,-0.045 c -16.85602,9.86946 -22.57511,28.14009 -23.10148,37.27885 a 33.568271,33.568271 0 0 0 -18.468,7.11814 20.062699,20.062699 0 0 0 -1.73148,-1.31247 31.111296,31.111296 0 0 1 -0.18873,-16.40235 49.702234,49.702234 0 0 0 -16.15301,12.48401 h -0.0311 c -2.65956,-3.37121 -2.47256,-14.48733 -2.32019,-16.80925 a 11.995717,11.995717 0 0 0 -2.24054,1.18953 48.871123,48.871123 0 0 0 -6.55886,5.61866 58.60206,58.60206 0 0 0 -6.2731623,7.52676 v 0.0104 -0.0121 a 56.67665,56.67665 0 0 0 -9.00372,20.33281 l -0.09,0.44327 c -0.1264,0.59043 -0.58178,3.54781 -0.6597,4.19019 0,0.0502 -0.0104,0.0969 -0.0156,0.14717 a 63.955809,63.955809 0 0 0 -1.0891,9.25132 v 0.3463 A 67.110569,67.110569 0 0 0 128.01438,250.52485 c 0.1125,-0.86574 0.20432,-1.72283 0.30474,-2.59723 a 69.011738,69.011738 0 0 0 -4.35297,-33.71028 z m -77.345355,52.52977 c 0.3134,0.15064 0.60775,0.3134 0.92981,0.45711 l 0.0467,0.0294 q -0.48828,-0.23374 -0.97656,-0.48654 z m 70.696455,-49.01832 v -0.064 l 0.0121,0.071 z"
       fill="#f5c211"
       fill-opacity="0.992157"
       id="path9" /><path
       d="m 123.96611,214.21739 c -2.91581,-7.01599 -8.83056,-14.59123 -13.46229,-16.98586 a 69.719913,69.719913 0 0 1 6.79609,20.36917 v 0.064 l 0.0121,0.071 a 60.775072,60.775072 0 0 1 -2.08817,45.29218 c -7.69125,16.50277 -26.308145,33.41763 -55.449015,32.59516 -31.48703,-0.89171 -59.21673223,-24.25634 -64.4008023,-54.85859 -0.94365,-4.82565 0,-7.27223 0.47443,-11.19403 a 49.998318,49.998318 0 0 0 -1.07871,9.25997 v 0.3463 A 67.110569,67.110569 0 0 0 128.01432,250.52484 c 0.1125,-0.86575 0.20431,-1.72283 0.30474,-2.59723 a 69.011738,69.011738 0 0 0 -4.35296,-33.71028 z"
       fill="url(#radialGradient952)"
       id="path10"
       style="fill:url(#radialGradient952)" /><path
       d="m 123.96611,214.21739 c -2.91581,-7.01599 -8.83056,-14.59123 -13.46229,-16.98586 a 69.719913,69.719913 0 0 1 6.79609,20.36917 v 0.064 l 0.0121,0.071 a 60.775072,60.775072 0 0 1 -2.08817,45.29218 c -7.69125,16.50277 -26.308145,33.41763 -55.449015,32.59516 -31.48703,-0.89171 -59.21673223,-24.25634 -64.4008023,-54.85859 -0.94365,-4.82565 0,-7.27223 0.47443,-11.19403 a 49.998318,49.998318 0 0 0 -1.07871,9.25997 v 0.3463 A 67.110569,67.110569 0 0 0 128.01432,250.52484 c 0.1125,-0.86575 0.20431,-1.72283 0.30474,-2.59723 a 69.011738,69.011738 0 0 0 -4.35296,-33.71028 z"
       fill="#c01c28"
       id="path11" /><path
       d="m 61.994605,226.272 c -0.11082,1.66914 -6.00825,7.42633 -8.07045,7.42633 -19.08267,0 -22.1803,11.54381 -22.1803,11.54381 0.84496,9.72054 7.61853,17.72693 15.80671,21.96213 0.374,0.19393 0.7532,0.3688 1.13239,0.54023 q 0.98522,0.43633 1.97043,0.80686 a 29.842119,29.842119 0 0 0 8.73187,1.68474 c 33.44707,1.56873 39.92628,-39.99727 15.7894,-52.05882 a 23.167249,23.167249 0 0 1 16.18071,3.92877 33.867818,33.867818 0 0 0 -29.40405,-17.17116 c -0.79648,0 -1.57565,0.0658 -2.35828,0.11947 a 33.568271,33.568271 0 0 0 -18.468,7.11813 c 1.02331,0.86575 2.17821,2.02238 4.61094,4.42049 4.55379,4.48629 16.23265,9.13359 16.25863,9.67902 z"
       fill="#1a5fb4"
       id="path12" /><path
       d="m 37.996235,209.94061 c 0.54369,0.34629 0.99215,0.64757 1.38519,0.91942 a 31.111296,31.111296 0 0 1 -0.18873,-16.40235 49.702234,49.702234 0 0 0 -16.15301,12.484 c 0.32726,-0.009 10.06166,-0.18354 14.95655,2.99893 z"
       fill="#e66100"
       id="path13" /><path
       d="m -4.6172973,240.76451 c 5.17886007,30.60225 32.9137723,53.96688 64.4007923,54.85859 29.14087,0.82419 47.757775,-16.0924 55.449015,-32.59516 a 60.775072,60.775072 0 0 0 2.08817,-45.29218 v -0.064 c 0,-0.0502 -0.0104,-0.0796 0,-0.064 l 0.0121,0.1125 c 2.38079,15.54355 -5.52517,30.60227 -17.884475,40.78512 l -0.0381,0.0865 c -24.08148,19.61252 -47.12752,11.83297 -51.79214,8.65742 q -0.48828,-0.23376 -0.97655,-0.48655 c -14.04059,-6.71124 -19.84106,-19.50344 -18.59786,-30.47411 a 17.233456,17.233456 0 0 1 -15.89675,-9.99934 25.310826,25.310826 0 0 1 24.67191,-0.9904 33.417632,33.417632 0 0 0 25.19654,0.9904 c -0.026,-0.54541 -11.70482,-5.19444 -16.25862,-9.679 -2.43274,-2.39811 -3.58764,-3.553 -4.61094,-4.42049 a 20.062699,20.062699 0 0 0 -1.73149,-1.31246 c -0.39824,-0.27185 -0.84669,-0.56621 -1.38518,-0.91942 -4.89491,-3.18247 -14.62931,-3.00759 -14.95137,-2.99894 h -0.0311 c -2.65955,-3.37119 -2.47255,-14.48732 -2.32018,-16.80924 a 11.995717,11.995717 0 0 0 -2.24054,1.18953 48.871123,48.871123 0 0 0 -6.55886,5.61867 58.60206,58.60206 0 0 0 -6.2991323,7.50944 v 0.0104 -0.0121 a 56.67665,56.67665 0 0 0 -9.00372,20.33284 c -0.0329,0.13679 -2.41715,10.56032 -1.24147,15.96601 z"
       fill="#ff7800"
       id="path14" /><path
       d="m 92.771725,223.2367 c -0.29262,-0.26837 -0.63719,-0.54541 -1.006,-0.82418 -0.13678,-0.10212 -0.27184,-0.20431 -0.41728,-0.30647 a 23.167249,23.167249 0 0 0 -16.18072,-3.92877 c 24.13688,12.06847 17.66113,53.62755 -15.7894,52.05882 a 29.842119,29.842119 0 0 1 -8.73187,-1.68474 q -0.98521,-0.3688 -1.97043,-0.80686 c -0.37919,-0.17316 -0.75839,-0.3463 -1.13239,-0.54023 l 0.0467,0.0294 c 4.66462,3.1842 27.70374,10.96376 51.79214,-8.65741 l 0.0381,-0.0865 c 0.600825,-1.4025 8.572565,-21.23318 -6.64889,-35.25301 z"
       fill="#ffa348"
       id="path15" /><path
       d="m 31.743855,245.24214 c 0,0 3.09763,-11.54381 22.1803,-11.54381 2.0622,0 7.96483,-5.75719 8.07045,-7.42633 a 33.417632,33.417632 0 0 1 -25.19655,-0.99041 25.310826,25.310826 0 0 0 -24.67191,0.99041 17.233456,17.233456 0 0 0 15.89676,9.99932 c -1.24321,10.97241 4.55726,23.76461 18.59785,30.47411 0.3134,0.15064 0.60775,0.3134 0.92981,0.45711 -8.19511,-4.23347 -14.96175,-12.23986 -15.80671,-21.9604 z"
       fill="#ffa348"
       id="path16" /><path
       d="m 61.994605,226.272 c -0.11082,1.66914 -6.00825,7.42633 -8.07045,7.42633 -19.08267,0 -22.1803,11.54381 -22.1803,11.54381 0.84496,9.72054 7.61853,17.72693 15.80671,21.96213 0.374,0.19393 0.7532,0.3688 1.13239,0.54023 q 0.98522,0.43633 1.97043,0.80686 a 29.842119,29.842119 0 0 0 8.73187,1.68474 c 33.44707,1.56873 39.92628,-39.99727 15.7894,-52.05882 a 23.167249,23.167249 0 0 1 16.18071,3.92877 33.867818,33.867818 0 0 0 -29.40405,-17.17116 c -0.79648,0 -1.57565,0.0658 -2.35828,0.11947 a 33.568271,33.568271 0 0 0 -18.468,7.11813 c 1.02331,0.86575 2.17821,2.02238 4.61094,4.42049 4.55379,4.48629 16.23265,9.13359 16.25863,9.67902 z"
       fill="none"
       id="path17" /></g></svg>
