<svg width="128" height="128" viewBox="0 0 128 128" fill="none" xmlns="http://www.w3.org/2000/svg">
<g clip-path="url(#clip0_883_483)">
<g clip-path="url(#clip1_883_483)">
<rect x="14" y="14" width="100" height="100" rx="10" fill="url(#paint0_linear_883_483)"/>
<g clip-path="url(#clip2_883_483)">
<rect x="14" y="14" width="100" height="90" rx="10" fill="url(#paint1_linear_883_483)"/>
<rect x="-36.5" y="-30.5" width="104" height="98" rx="42.5" fill="#D9D9D9" stroke="#00BD58" stroke-width="5"/>
<rect x="-10.5" y="-12.5" width="78" height="80" stroke="#00BD58" stroke-width="5"/>
<path d="M61.5 61.5H72.5V72.5H61.5V61.5Z" fill="white" stroke="#00BD58" stroke-width="5"/>
</g>
</g>
<g filter="url(#filter0_d_883_483)">
<path d="M83.9013 113.753L65.7332 68.3329C65.0801 66.7003 66.7003 65.0801 68.3329 65.7332L113.753 83.9013C115.6 84.6401 115.353 87.3293 113.403 87.7194L93.3074 91.7385C92.5156 91.8969 91.8968 92.5157 91.7384 93.3074L87.7194 113.403C87.3293 115.353 84.6401 115.6 83.9013 113.753Z" fill="black"/>
<path d="M89.287 92.8172L85.5978 111.263L68.4876 68.4876L111.263 85.5978L92.8171 89.2871C91.0357 89.6433 89.6433 91.0358 89.287 92.8172Z" stroke="white" stroke-width="5"/>
</g>
</g>
<defs>
<filter id="filter0_d_883_483" x="60.585" y="65.585" width="59.426" height="64.426" filterUnits="userSpaceOnUse" color-interpolation-filters="sRGB">
<feFlood flood-opacity="0" result="BackgroundImageFix"/>
<feColorMatrix in="SourceAlpha" type="matrix" values="0 0 0 0 0 0 0 0 0 0 0 0 0 0 0 0 0 0 127 0" result="hardAlpha"/>
<feOffset dy="10"/>
<feGaussianBlur stdDeviation="2.5"/>
<feComposite in2="hardAlpha" operator="out"/>
<feColorMatrix type="matrix" values="0 0 0 0 0 0 0 0 0 0 0 0 0 0 0 0 0 0 0.25 0"/>
<feBlend mode="normal" in2="BackgroundImageFix" result="effect1_dropShadow_883_483"/>
<feBlend mode="normal" in="SourceGraphic" in2="effect1_dropShadow_883_483" result="shape"/>
</filter>
<linearGradient id="paint0_linear_883_483" x1="14" y1="114" x2="114" y2="114" gradientUnits="userSpaceOnUse">
<stop stop-color="#724B93"/>
<stop offset="0.0384006" stop-color="#7D5AAA"/>
<stop offset="0.07751" stop-color="#5D4689"/>
<stop offset="0.923489" stop-color="#1B3C63"/>
<stop offset="0.961496" stop-color="#2E6FBD"/>
<stop offset="1" stop-color="#1B4374"/>
</linearGradient>
<linearGradient id="paint1_linear_883_483" x1="114" y1="80.9233" x2="15.9748" y2="33.0344" gradientUnits="userSpaceOnUse">
<stop stop-color="#3584E4"/>
<stop offset="1" stop-color="#C061CB"/>
</linearGradient>
<clipPath id="clip0_883_483">
<rect width="128" height="128" fill="white"/>
</clipPath>
<clipPath id="clip1_883_483">
<rect x="14" y="14" width="100" height="100" rx="10" fill="white"/>
</clipPath>
<clipPath id="clip2_883_483">
<rect x="14" y="14" width="100" height="90" rx="10" fill="white"/>
</clipPath>
</defs>
</svg>
