<?xml version="1.0" encoding="UTF-8" standalone="no"?>
<svg
   enable-background="new"
   height="128"
   viewBox="0 0 128 128"
   width="128"
   version="1.1"
   id="svg9"
   sodipodi:docname="telegram.svg"
   xml:space="preserve"
   inkscape:version="1.3.2 (091e20ef0f, 2023-11-25)"
   xmlns:inkscape="http://www.inkscape.org/namespaces/inkscape"
   xmlns:sodipodi="http://sodipodi.sourceforge.net/DTD/sodipodi-0.dtd"
   xmlns="http://www.w3.org/2000/svg"
   xmlns:svg="http://www.w3.org/2000/svg"><defs
     id="defs9" /><sodipodi:namedview
     id="namedview9"
     pagecolor="#ffffff"
     bordercolor="#000000"
     borderopacity="0.25"
     inkscape:showpageshadow="2"
     inkscape:pageopacity="0.0"
     inkscape:pagecheckerboard="0"
     inkscape:deskcolor="#d1d1d1"
     inkscape:zoom="3.1925936"
     inkscape:cx="59.042904"
     inkscape:cy="38.52667"
     inkscape:window-width="1904"
     inkscape:window-height="1032"
     inkscape:window-x="8"
     inkscape:window-y="4"
     inkscape:window-maximized="0"
     inkscape:current-layer="svg9" /><linearGradient
     id="b"
     gradientUnits="userSpaceOnUse"
     x1="82.003597"
     x2="55.003597"
     y1="26.003604"
     y2="89.000004"><stop
       offset="0"
       stop-color="#37aee2"
       id="stop1" /><stop
       offset="1"
       stop-color="#1e96c8"
       id="stop2" /></linearGradient><linearGradient
     id="w"
     gradientTransform="matrix(0.49135865,0,0,0.41212259,9.999997,8.000004)"
     gradientUnits="userSpaceOnUse"
     x1="123.641"
     x2="146.527"
     y1="131.028"
     y2="174.708"><stop
       offset="0"
       stop-color="#eff7fc"
       id="stop3" /><stop
       offset="1"
       stop-color="#fff"
       id="stop4" /></linearGradient><g
     id="g10"
     transform="matrix(0.9686775,0,0,0.9686775,2.0046438,2.9733175)"><path
       d="m 54.099997,86.75 c 1.35,0 1.94648,-0.6174 2.7,-1.35 L 64,78.3989 55.018897,72.98315"
       fill="#a9c9dd"
       id="path7" /><g
       id="g9"><g
         transform="translate(6.2e-5,-173)"
         id="g5"><path
           d="M 123.99993,237 A 59.999995,59.999995 0 0 1 63.999945,297 59.999995,59.999995 0 0 1 3.9999381,237 59.999995,59.999995 0 0 1 63.999945,177.00001 59.999995,59.999995 0 0 1 123.99993,237 Z"
           fill="#deddda"
           id="path4" /><rect
           fill="#d5d3cf"
           height="114"
           rx="56"
           width="112"
           x="8"
           y="179"
           id="rect4" /><path
           d="M 123.99993,235 A 59.999995,59.999995 0 0 1 63.999945,294.99999 59.999995,59.999995 0 0 1 3.9999381,235 59.999995,59.999995 0 0 1 63.999945,175 59.999995,59.999995 0 0 1 123.99993,235 Z"
           fill="#f6f5f4"
           id="path5" /></g><circle
         cx="64"
         cy="62"
         fill="url(#b)"
         r="54"
         id="circle5"
         style="fill:url(#b)" /><path
         d="m 54.099997,86.75 c -1.74942,0 -1.45215,-0.660555 -2.05551,-2.326275 L 46.899997,67.492655 86.5,44.000004"
         fill="#c8daea"
         id="path6" /><path
         d="M 55.017997,72.9845 76.78,89.06255 c 2.483325,1.370205 4.27563,0.66078 4.8942,-2.305575 l 8.858249,-41.743346 c 0.90693,-3.63609 -1.386045,-5.28525 -3.761729,-4.20669 l -52.015503,20.05695 c -3.55054,1.424115 -3.52984,3.404966 -0.64719,4.287596 L 47.456377,69.31772 78.35923,49.821474 c 1.458855,-0.884655 2.797785,-0.40905 1.69884,0.56628"
         fill="url(#w)"
         id="path8"
         style="fill:url(#w)" /></g><path
       d="m 64,7.8291 a 54,54 0 0 0 -54,54 A 54,54 0 0 0 10.0415,63 54,54 0 0 1 64,9.8291 54,54 0 0 1 117.9585,62.65723 54,54 0 0 0 118,61.8291 a 54,54 0 0 0 -54.00001,-54 z"
       opacity="0.1"
       id="path9" /></g></svg>
